<?xml version="1.0" encoding="utf-8"?>
<!-- Generator: Adobe Illustrator 22.1.0, SVG Export Plug-In . SVG Version: 6.00 Build 0)  -->
<svg version="1.1" id="Layer_1" xmlns="http://www.w3.org/2000/svg" xmlns:xlink="http://www.w3.org/1999/xlink" x="0px" y="0px"
	 viewBox="0 0 149.2 172.2" style="enable-background:new 0 0 149.2 172.2;" xml:space="preserve">
<style type="text/css">
	.st0{fill:#FDFDFD;}
	.st1{fill:#C9C9C9;}
	.st2{fill:#323232;}
	.st3{fill:#303030;}
	.st4{fill:#CDCDCD;}
	.st5{fill:#797979;}
	.st6{fill:#DEDEDE;}
	.st7{fill:#9F9F9F;}
	.st8{fill:#1F1F1F;}
	.st9{fill:#3E3E3E;}
	.st10{fill:#B3B3B3;}
	.st11{fill:#2F2F2F;}
	.st12{fill:#454545;}
	.st13{fill:#3B3B3B;}
	.st14{fill:#909090;}
	.st15{fill:#535353;}
	.st16{fill:#C7C7C7;}
	.st17{fill:#C3C3C3;}
	.st18{fill:#ABABAB;}
	.st19{fill:#353535;}
	.st20{fill:#595959;}
	.st21{fill:#B6B6B6;}
	.st22{fill:#A3A3A3;}
	.st23{fill:#464646;}
	.st24{fill:#B7B7B7;}
	.st25{fill:#363636;}
	.st26{fill:#C4C4C4;}
	.st27{fill:#525252;}
	.st28{fill:#A5A5A5;}
	.st29{fill:#B5B5B5;}
	.st30{fill:#2C2C2C;}
	.st31{fill:#BDBDBD;}
	.st32{fill:#5D5D5D;}
	.st33{fill:#8E8E8E;}
	.st34{fill:#4B4B4B;}
	.st35{fill:#292929;}
	.st36{fill:#C6C6C6;}
	.st37{fill:#818181;}
	.st38{fill:#B1B1B1;}
	.st39{fill:#4A4A4A;}
	.st40{fill:#B2B2B2;}
	.st41{fill:#BABABA;}
	.st42{fill:#9C9C9C;}
	.st43{fill:#A4A4A4;}
	.st44{fill:#999999;}
	.st45{fill:#7D7D7D;}
	.st46{fill:#7E7E7E;}
	.st47{fill:#626262;}
	.st48{fill:#484848;}
	.st49{fill:#959595;}
	.st50{fill:#4C4C4C;}
	.st51{fill:#A1A1A1;}
	.st52{fill:#858585;}
	.st53{fill:#A0A0A0;}
	.st54{fill:#575757;}
	.st55{fill:#A7A7A7;}
	.st56{fill:#787878;}
	.st57{fill:#555555;}
	.st58{fill:#646464;}
	.st59{fill:#494949;}
	.st60{fill:#FEFEFE;}
	.st61{fill:#D8D8D8;}
	.st62{fill:#9A9A9A;}
	.st63{fill:#9E9E9E;}
	.st64{fill:#B0B0B0;}
	.st65{fill:#2E2E2E;}
	.st66{fill:#2A2A2A;}
	.st67{fill:#313131;}
	.st68{fill:#CFCFCF;}
	.st69{fill:#D2D2D2;}
	.st70{fill:#DADADA;}
	.st71{fill:#252525;}
	.st72{fill:#474747;}
	.st73{fill:#BCBCBC;}
	.st74{fill:#B8B8B8;}
	.st75{fill:#CBCBCB;}
	.st76{fill:#333333;}
	.st77{fill:#5F5F5F;}
	.st78{fill:#B9B9B9;}
	.st79{fill:#8A8A8A;}
	.st80{fill:#888888;}
	.st81{fill:#939393;}
	.st82{fill:#A9A9A9;}
	.st83{fill:#8F8F8F;}
	.st84{fill:#757575;}
	.st85{fill:#666666;}
	.st86{fill:#B4B4B4;}
	.st87{fill:#5E5E5E;}
	.st88{fill:#CACACA;}
	.st89{fill:#3A3A3A;}
	.st90{fill:#AEAEAE;}
	.st91{fill:#747474;}
	.st92{fill:#262626;}
	.st93{fill:#A2A2A2;}
	.st94{fill:#737373;}
	.st95{fill:#7A7A7A;}
	.st96{fill:#585858;}
	.st97{fill:#ADADAD;}
	.st98{fill:#AAAAAA;}
	.st99{fill:#444444;}
	.st100{fill:#6F6F6F;}
	.st101{fill:#636363;}
</style>
<g>
	<path class="st0" d="M74.9,160c-24.4,0-48.7,0-73.1,0c-0.5,0-0.7-0.1-0.7-0.7c0-48.8,0-97.5,0-146.3c0-0.5,0.1-0.7,0.7-0.7
		c48.8,0,97.5,0,146.3,0c0.5,0,0.7,0.1,0.7,0.7c0,48.8,0,97.5,0,146.3c0,0.5-0.1,0.7-0.7,0.7C123.7,160,99.3,160,74.9,160z"/>
	<path d="M122.3,136.5c-1.6,1.5-3.3,2.9-5.1,4.2c-1.8,1.4-3.7,2.6-5.7,3.8c-0.2,0.1-0.4,0.2-0.7,0.4c-0.1,0.1-0.3,0.2-0.4,0.3
		c-0.8,0.4-1.5,0.9-2.3,1.2c-0.1,0.1-0.3,0.2-0.4,0.3c-0.6,0.3-1.2,0.7-1.9,0.9c-0.2,0.1-0.5,0.2-0.8,0.4c-1.8,0.9-3.7,1.7-5.6,2.3
		c-0.4,0.2-0.8,0.2-1.2,0.4l0,0c-0.2,0.1-0.5,0.1-0.7,0.3c-1.8,0.6-3.6,1.1-5.5,1.6c-0.5,0.2-1,0.2-1.5,0.4c-1.5,0.3-3,0.6-4.5,0.8
		c-2.8,0.5-5.7,0.7-8.5,0.8c-2.5,0.1-5,0-7.5-0.1c-1.5-0.1-3-0.3-4.6-0.4c-0.4-0.2-0.8-0.1-1.2-0.2c-1.4-0.1-2.7-0.4-4-0.7
		c-2.4-0.5-4.8-1.1-7.2-1.9c-3.3-1.1-6.5-2.3-9.5-3.8c-0.3-0.2-0.6-0.2-0.9-0.4c-13.4-6.8-23.7-16.9-30.9-30.1
		c-0.1-0.2-0.3-0.5-0.4-0.7c-0.9-1.7-1.7-3.5-2.5-5.3c-0.9-2.1-1.7-4.2-2.3-6.4c-0.1-0.3-0.3-0.5-0.3-0.8c-0.1-0.2-0.2-0.4-0.2-0.7
		c0-0.3,0-0.6-0.2-0.9l0,0c-0.2-0.2-0.1-0.5-0.3-0.8c0-0.3-0.1-0.5-0.2-0.7c-0.1-0.4-0.1-0.8-0.3-1.2c0,0,0-0.1,0-0.1
		c-0.2-0.3-0.2-0.7-0.2-1.1c0-0.3-0.1-0.6-0.2-0.9c-0.4-2-0.8-4.1-0.9-6.2c-0.1-0.6-0.1-1.2-0.2-1.8c-0.1-2.9-0.4-5.9-0.2-8.8
		c0.1-2.1,0.2-4.1,0.5-6.2c0.1-0.4,0.1-0.8,0.1-1.2c0.2-1.3,0.4-2.5,0.7-3.8c0,0,0-0.1,0-0.1c0.2-0.4,0.1-0.8,0.3-1.2
		c0.3-1.4,0.7-2.9,1-4.3c0.1-0.3,0.1-0.6,0.3-0.9c0.3-0.9,0.6-1.8,0.9-2.7c0.1-0.2,0.1-0.5,0.3-0.7l0,0c0.2-0.6,0.5-1.2,0.7-1.9
		c0.7-2,1.6-4,2.6-5.9c1.9-3.9,4.2-7.6,6.8-11.1c0.1-0.1,0.1-0.2,0.1-0.3c0.2-0.3,0.4-0.5,0.7-0.8c1.2-1.7,2.6-3.1,3.9-4.7
		c0.2-0.1,0.3-0.3,0.4-0.5c1.2-1.1,2.3-2.3,3.5-3.4c0.2-0.1,0.3-0.3,0.5-0.4c2.3-2,4.6-3.9,7.1-5.7c2.3-1.6,4.7-3.1,7.2-4.4
		c1.1-0.6,2.1-1.1,3.2-1.6c0.2-0.2,0.5-0.2,0.7-0.4c0.3,0.1,0.6-0.5,0.9,0c0.1,0.1,0.2,0.3,0.3,0.4c1.3,2.1,2.6,4.3,3.9,6.4
		c1.7,2.9,3.4,5.8,5.2,8.6c0.4,0.7,0.9,1.4,1.3,2.1c0.2,0.1,0.2,0.3,0.3,0.4c0,0.4,0.4,0.6,0.5,1c0.2,0.4-0.3,0.4-0.5,0.6
		c0,0-0.1,0-0.1,0c-0.2,0.1-0.4,0.2-0.6,0.3c-5.1,2.1-9.7,5.1-13.9,8.7c-0.1,0.1-0.2,0.3-0.3,0.4c-0.3,0.2-0.5,0.5-0.7,0.7
		c-0.8,0.6-1.4,1.2-2,2c-0.2,0.2-0.5,0.5-0.7,0.7c-1.3,1.2-2.3,2.6-3.3,4c-2.2,3-4,6.3-5.5,9.7c0,0.1,0,0.2-0.1,0.4
		c-0.2,0.3-0.2,0.6-0.4,0.9c-0.2,0.4-0.3,0.9-0.5,1.3c-0.1,0.2-0.1,0.4-0.3,0.6l0,0c-0.2,0.4-0.3,0.8-0.4,1.2
		c-0.2,0.9-0.5,1.8-0.7,2.7C27,72,27,72.6,26.8,73c-0.2,1.8-0.7,3.6-0.8,5.5c-0.2,2.7-0.5,5.3-0.2,8c0.2,1.8,0.2,3.6,0.6,5.4
		c0.2,0.6,0.2,1.3,0.4,1.9c0.2,1.5,0.6,3,1.1,4.4c0,0.1,0,0.3,0.1,0.4c0.2,0.4,0.2,0.8,0.4,1.2l0,0c0.1,0.2,0.2,0.4,0.3,0.6
		c0.4,1.6,1.1,3,1.8,4.5c1.2,2.5,2.6,4.9,4.2,7.2c1.3,1.9,2.8,3.6,4.3,5.3c0.2,0.1,0.3,0.3,0.4,0.4c2.5,2.5,5.1,4.8,8.1,6.8
		c0.1,0,0.1,0.1,0.1,0.2c0.2,0.2,0.5,0.3,0.7,0.4c0.5,0.3,1,0.6,1.4,0.9c0.2,0.2,0.4,0.2,0.6,0.3c2.8,1.7,5.7,3,8.8,4
		c0.2,0.1,0.5,0.1,0.7,0.3c0.1,0,0.2,0,0.3,0c0.4,0.2,0.8,0.2,1.2,0.4l0,0c0.2,0.1,0.5,0.2,0.8,0.2c0.3,0.1,0.6,0,0.8,0.2
		c0.8,0.2,1.5,0.4,2.3,0.5c0.3,0.1,0.6,0.1,0.9,0.2c0.1,0,0.2,0,0.3,0.1c0.4,0.2,0.7,0.2,1.1,0.2c0.1,0,0.1,0,0.2,0
		c0.3,0.1,0.5,0,0.8,0c0.2,0,0.5,0,0.7,0.1c0.1,0,0.3,0,0.4,0c0.7,0.2,1.4,0.1,2,0.3c2.1,0,4.2,0.1,6.3,0c1-0.1,1.9-0.2,2.9-0.3
		c0.6-0.2,1.2-0.1,1.7-0.3c1.5-0.2,3-0.5,4.5-0.9c0.4-0.3,1-0.2,1.4-0.4c0.1,0,0.2,0,0.3,0c0.4-0.2,0.8-0.2,1.2-0.4
		c1.9-0.5,3.6-1.3,5.4-2c0.5-0.2,1.1-0.5,1.6-0.7c0.2-0.1,0.3-0.1,0.5-0.3c3.8-2,7.4-4.4,10.6-7.3c3.4-3.1,6.3-6.6,8.8-10.5
		c1.8-2.9,3.3-6,4.5-9.2c0.3-0.8,0.5-1.6,0.8-2.4c0.1-0.2,0.2-0.4,0.3-0.6c0.2-0.9,0.4-1.7,0.6-2.6c0.1-0.4,0.1-0.8,0.3-1.2
		c0.6-2.7,0.8-5.4,1-8.1c0.2-3.1-0.1-6.1-0.4-9.1c-0.3-2.4-0.9-4.8-1.4-7.2c-0.1-0.2-0.1-0.4-0.2-0.6c0-0.1,0-0.2-0.1-0.3
		c-0.2-0.3-0.2-0.7-0.4-1c0-0.1,0-0.3-0.1-0.4c-0.1-0.2-0.2-0.3-0.2-0.5c-0.2-0.8-0.6-1.6-0.9-2.4c-0.1-0.3-0.2-0.6-0.4-0.9
		c-0.1-0.7-0.5-1.2-0.8-1.8c-0.1-0.3-0.3-0.5-0.4-0.7c-1.3-2.8-3-5.4-4.8-7.9c-1.4-1.9-3.1-3.7-4.7-5.4c-0.3-0.2-0.5-0.5-0.7-0.7
		c-1.7-1.4-3.3-2.9-5.2-4.1c-0.7-0.5-1.4-1-2.2-1.5c-0.2-0.2-0.4-0.2-0.6-0.3c-0.5-0.3-1-0.6-1.6-0.9c-0.2-0.1-0.4-0.1-0.6-0.3
		c-1.2-0.7-2.4-1.4-3.6-2c-0.3-0.2-0.2-0.3-0.1-0.5c1.9-3.5,3.8-7,5.8-10.5c0.2-0.2,0.1-0.4,0.3-0.6c0.6-1.2,1.3-2.4,1.9-3.6
		c0.8-1.4,1.6-2.9,2.4-4.3c0.1-0.2,0.2-0.4,0.4-0.3c0.7,0.3,1.3,0.7,2,1c0.3,0.1,0.5,0.3,0.7,0.4c1,0.6,2,1.3,3,1.9
		c0.3,0.3,0.6,0.5,0.9,0.7c1,0.4,1.7,1.1,2.6,1.7c2,1.5,4,3,5.9,4.7c0.3,0.2,0.6,0.5,0.8,0.7c0.1,0.2,0.3,0.3,0.4,0.4
		c1.8,1.6,3.4,3.4,5,5.2c0.1,0.2,0.3,0.4,0.5,0.6c0.8,0.9,1.5,1.7,2.3,2.6c0.1,0.2,0.3,0.4,0.4,0.6c2.8,3.6,5.3,7.5,7.5,11.5
		c1.7,3.2,3.2,6.5,4.4,9.9c0.5,1.4,0.9,2.7,1.4,4.1c0.1,0.2,0.2,0.4,0.2,0.7c0,0.3,0,0.6,0.2,0.9c0,0.1,0,0.2,0,0.3
		c0.2,0.4,0.2,0.9,0.4,1.3l0,0c0.1,0.4,0.2,0.8,0.3,1.2c0.1,0.4,0.1,0.7,0.2,1.1c0.1,0.3,0.1,0.6,0.2,0.9c0.1,0.4,0.1,0.8,0.2,1.1
		c0.1,0.5,0,1,0.3,1.5c0.6,3.3,0.8,6.7,0.9,10.1c0.1,2.1-0.1,4.2-0.2,6.3c-0.1,1.7-0.2,3.5-0.6,5.2c-0.2,0.5-0.1,1-0.2,1.5
		c-0.2,1.4-0.5,2.9-0.9,4.3c-0.2,0.3-0.2,0.6-0.2,0.9c-0.1,0.3,0,0.6-0.2,0.8c-0.4,1.3-0.8,2.7-1.2,4c-0.1,0.3-0.2,0.7-0.4,1
		c-0.7,2.1-1.6,4.2-2.5,6.2c-0.8,1.7-1.7,3.4-2.6,5.1c-0.2,0.2-0.3,0.5-0.4,0.7c-1.9,3.2-3.9,6.2-6.2,9.1c-2.3,2.8-4.8,5.5-7.5,7.9
		C122.8,136.1,122.5,136.3,122.3,136.5z"/>
	<path d="M66.3,52.2c0-10.6,0-21.3,0-31.9c0-0.6,0.1-0.8,0.8-0.8c6.1,0,12.2,0,18.3,0c0.7,0,0.9,0.1,0.9,0.9c0,21.3,0,42.6,0,63.9
		c0,0.6-0.1,0.8-0.8,0.8c-6.1,0-12.3,0-18.4,0c-0.6,0-0.8-0.1-0.8-0.8C66.3,73.6,66.3,62.9,66.3,52.2z"/>
	<path class="st1" d="M4.9,69.4c-0.1,1.3-0.4,2.5-0.7,3.8c-0.1-0.8,0.1-1.5,0.3-2.2C4.7,70.4,4.4,69.8,4.9,69.4z"/>
	<path class="st2" d="M71.5,132.9c-0.7,0-1.4,0.3-2-0.3C70.1,132.6,70.8,132.7,71.5,132.9z"/>
	<path class="st3" d="M8.4,57.6c0,0.7-0.3,1.3-0.7,1.9C7.8,58.8,8,58.2,8.4,57.6z"/>
	<path class="st4" d="M26.8,93.8c-0.3-0.6-0.4-1.3-0.4-1.9C26.9,92.4,26.7,93.1,26.8,93.8z"/>
	<path class="st5" d="M3.8,89.4C4.1,90,4.1,90.6,4,91.2C3.7,90.6,3.8,90,3.8,89.4z"/>
	<path class="st6" d="M82.4,132.3c-0.6,0.1-1.1,0.3-1.7,0.3C81.2,132.1,81.8,132.4,82.4,132.3z"/>
	<path class="st4" d="M67.6,132.5L67.6,132.5l-0.1,0c-0.1,0-0.1,0-0.1-0.1c0,0,0-0.1,0-0.1c0.5,0.1,1.1-0.3,1.6,0.3
		c-0.2,0-0.5,0-0.7,0C68.1,132.5,67.8,132.7,67.6,132.5z"/>
	<path class="st7" d="M88.3,131.1c-0.4,0.3-0.9,0.4-1.4,0.4C87.3,131,87.8,131.2,88.3,131.1z"/>
	<path class="st8" d="M145.1,95.8c0-0.5-0.2-1.1,0.2-1.5C145.4,94.8,145.2,95.3,145.1,95.8z"/>
	<path class="st9" d="M145.3,72.7c-0.5-0.4-0.2-1-0.3-1.5C145.2,71.7,145.4,72.2,145.3,72.7z"/>
	<path class="st10" d="M90.7,152.9c0.5-0.3,1-0.3,1.5-0.4C91.8,152.9,91.3,152.9,90.7,152.9z"/>
	<path class="st11" d="M67.4,132.3c0,0,0,0.1,0,0.1c-0.4,0-0.9,0.3-1.2-0.2C66.7,132.1,67,132.3,67.4,132.3z"/>
	<path class="st12" d="M64.4,153.8c0.4,0,0.9-0.2,1.2,0.2C65.1,154.1,64.8,154,64.4,153.8z"/>
	<path class="st13" d="M26.8,73c0-0.5,0-1.1,0.4-1.5C27.2,72.1,27.1,72.6,26.8,73z"/>
	<path class="st14" d="M121.5,67.5c0.3,0.3,0.4,0.7,0.4,1C121.5,68.3,121.5,67.9,121.5,67.5z"/>
	<path class="st15" d="M144.2,67c-0.4-0.4-0.3-0.9-0.4-1.3C144.1,66,144.1,66.5,144.2,67z"/>
	<path class="st16" d="M143.8,101.8c0-0.3-0.1-0.6,0.1-0.9c0.1-0.1,0.1-0.1,0.1,0C144.1,101.3,144.1,101.6,143.8,101.8z"/>
	<path class="st17" d="M61.2,131c-0.4,0-0.8-0.1-1.2-0.4C60.5,130.7,60.9,130.7,61.2,131z"/>
	<path class="st18" d="M89.8,130.6c-0.3,0.3-0.7,0.4-1.2,0.4C88.9,130.6,89.3,130.7,89.8,130.6z"/>
	<path class="st19" d="M98.4,150.6c0.3-0.4,0.7-0.4,1.2-0.4C99.2,150.4,98.8,150.6,98.4,150.6z"/>
	<path class="st19" d="M28,68.9c0-0.4,0-0.9,0.4-1.2C28.4,68.1,28.2,68.5,28,68.9z"/>
	<path class="st19" d="M5.2,68.1c0,0.4,0.2,0.9-0.3,1.2C4.9,68.8,5.1,68.5,5.2,68.1z"/>
	<path class="st1" d="M123,93.9c0,0.4-0.1,0.8-0.3,1.2C122.7,94.6,122.6,94.2,123,93.9z"/>
	<path class="st1" d="M5.2,98.2c-0.1,0.4,0.3,0.7,0.2,1.1c-0.5-0.3-0.3-0.8-0.3-1.2C5.1,98.1,5.2,98.2,5.2,98.2z"/>
	<path class="st20" d="M28.4,99.8C28,99.5,28,99.1,28,98.6C28.2,99,28.3,99.4,28.4,99.8z"/>
	<path class="st21" d="M66,132.2c-0.3,0-0.6,0-0.9-0.2C65.4,131.9,65.8,131.7,66,132.2z"/>
	<path class="st2" d="M112.1,21.9c-0.4-0.1-0.8-0.3-0.9-0.7C111.6,21.4,111.9,21.5,112.1,21.9z"/>
	<path class="st18" d="M62.8,131.5c-0.3,0.1-0.5-0.2-0.8-0.2c-0.1,0-0.1-0.1,0-0.1C62.3,131.2,62.6,131.1,62.8,131.5z"/>
	<path class="st22" d="M142.2,106.9c0-0.4,0.1-0.7,0.4-1C142.5,106.2,142.6,106.6,142.2,106.9z"/>
	<path class="st7" d="M5.4,99.5c0.3,0.3,0.3,0.8,0.3,1.2C5.5,100.3,5.3,99.9,5.4,99.5z"/>
	<path class="st23" d="M144.9,70.1c-0.5-0.2-0.2-0.6-0.2-0.9C144.9,69.5,144.9,69.8,144.9,70.1z"/>
	<path class="st7" d="M144.5,68.1c-0.2-0.4-0.3-0.7-0.3-1.2C144.4,67.3,144.6,67.7,144.5,68.1z"/>
	<path class="st24" d="M38.5,50.8c0.1-0.3,0.3-0.6,0.7-0.7C39,50.4,38.8,50.7,38.5,50.8z"/>
	<path class="st25" d="M144,100.9c0,0-0.1,0-0.1,0c0-0.3-0.1-0.7,0.3-0.8C144.3,100.4,144.1,100.6,144,100.9z"/>
	<path class="st26" d="M119.9,63.3c0.3,0.2,0.4,0.5,0.4,0.9C120,64,119.9,63.7,119.9,63.3z"/>
	<path class="st27" d="M42.8,147c0.3,0.1,0.7,0.1,0.9,0.4C43.3,147.4,43,147.3,42.8,147z"/>
	<path class="st28" d="M29.1,65.8c0-0.4,0.1-0.7,0.4-0.9C29.5,65.3,29.5,65.6,29.1,65.8z"/>
	<path class="st29" d="M18.6,39.6c-0.2,0.3-0.3,0.6-0.7,0.8C18,40,18.2,39.7,18.6,39.6z"/>
	<path class="st30" d="M5.2,98.2c0,0-0.1,0-0.1,0C5,97.9,4.9,97.6,5,97.3C5.3,97.6,5.2,97.9,5.2,98.2z"/>
	<path class="st31" d="M5.8,101.3c0.2,0.2,0.3,0.5,0.3,0.8C5.7,102,5.8,101.6,5.8,101.3z"/>
	<path class="st32" d="M108.4,46.7c0.3,0.1,0.6,0.4,0.7,0.7C108.8,47.3,108.6,47,108.4,46.7z"/>
	<path class="st24" d="M41.2,48.1c0.2-0.3,0.3-0.7,0.7-0.7C41.7,47.7,41.6,48,41.2,48.1z"/>
	<path class="st33" d="M45.1,18.4c-0.2,0.2-0.4,0.4-0.7,0.4C44.5,18.5,44.8,18.5,45.1,18.4z"/>
	<path class="st34" d="M122.3,136.5c0.2-0.3,0.3-0.5,0.7-0.6C122.8,136.2,122.7,136.5,122.3,136.5z"/>
	<path class="st11" d="M143.7,65.4c-0.4-0.2-0.3-0.5-0.3-0.9c0.1-0.1,0.1-0.1,0.1,0C143.6,64.8,143.8,65.1,143.7,65.4z"/>
	<path class="st35" d="M105.2,147.9c0.1-0.4,0.5-0.3,0.8-0.4C105.7,147.7,105.5,147.9,105.2,147.9z"/>
	<path class="st36" d="M6.5,62.9c0,0.3-0.1,0.6-0.3,0.9C6.2,63.5,6.1,63.1,6.5,62.9z"/>
	<path class="st37" d="M56.9,38c0-0.3,0.5-0.2,0.5-0.6C57.7,37.8,57.6,37.8,56.9,38z"/>
	<path class="st11" d="M6.1,102.1c0.4,0.2,0.3,0.6,0.3,0.9c-0.1,0-0.1,0-0.1-0.1C6.2,102.6,6,102.4,6.1,102.1z"/>
	<path class="st11" d="M62,131.2c0,0,0,0.1,0,0.1c-0.3,0.1-0.6,0.1-0.8-0.3C61.5,131,61.7,131.1,62,131.2z"/>
	<path class="st38" d="M108.2,19.3c-0.3-0.1-0.6-0.1-0.7-0.4C107.8,18.9,108,19,108.2,19.3z"/>
	<path class="st39" d="M48.3,125.1c-0.3,0-0.6-0.2-0.7-0.4C47.8,124.8,48.1,124.9,48.3,125.1z"/>
	<path class="st23" d="M121.9,68.8c0.3,0.1,0.3,0.4,0.2,0.6C121.9,69.3,121.8,69.1,121.9,68.8z"/>
	<path class="st17" d="M6.3,102.9c0,0,0.1,0,0.1,0.1c0,0.3,0.2,0.4,0.1,0.7C6.2,103.5,6.2,103.2,6.3,102.9z"/>
	<path class="st40" d="M7.7,59.5c0,0.3-0.1,0.5-0.3,0.7C7.3,59.9,7.4,59.6,7.7,59.5z"/>
	<path class="st41" d="M136.7,118.9c0-0.3,0.1-0.6,0.4-0.7C137.1,118.5,137,118.8,136.7,118.9z"/>
	<path class="st42" d="M118.7,60.8c0.2,0.2,0.4,0.4,0.4,0.7C118.8,61.3,118.7,61.1,118.7,60.8z"/>
	<path class="st43" d="M28.4,67.7c-0.1-0.3,0.1-0.4,0.3-0.6C28.7,67.3,28.7,67.6,28.4,67.7z"/>
	<path class="st17" d="M143.6,64.5c0,0-0.1,0-0.1,0c0-0.2-0.2-0.5-0.1-0.7C143.7,64,143.6,64.2,143.6,64.5z"/>
	<path class="st44" d="M11.6,116.2c0.3,0.2,0.4,0.4,0.4,0.7C11.7,116.8,11.6,116.5,11.6,116.2z"/>
	<path class="st45" d="M59.8,130.6c-0.3,0.1-0.5,0-0.7-0.3C59.4,130.3,59.6,130.4,59.8,130.6z"/>
	<path class="st46" d="M97.7,150.9c0.2-0.2,0.4-0.3,0.7-0.3C98.2,150.9,98,150.9,97.7,150.9z"/>
	<path class="st47" d="M100.7,26.1c0,0.3-0.1,0.5-0.3,0.6C100.4,26.4,100.5,26.2,100.7,26.1z"/>
	<path class="st48" d="M127.4,35.1c-0.2-0.1-0.4-0.3-0.5-0.6C127.1,34.7,127.3,34.8,127.4,35.1z"/>
	<path class="st36" d="M28.7,100.4c-0.2-0.1-0.3-0.3-0.3-0.6C28.7,99.9,28.8,100.1,28.7,100.4z"/>
	<path class="st49" d="M98.4,39.6c0.3,0,0.5,0,0.6,0.3C98.7,39.9,98.5,39.8,98.4,39.6z"/>
	<path class="st50" d="M122.1,97.6c0.1,0.3,0,0.5-0.3,0.6C121.8,97.9,121.9,97.8,122.1,97.6z"/>
	<path class="st51" d="M130.1,38.3c-0.2-0.1-0.4-0.3-0.4-0.6C129.9,37.9,130.1,38,130.1,38.3z"/>
	<path class="st52" d="M46.3,18.9C46,18.8,46,18.6,46,18.4C46.2,18.5,46.3,18.6,46.3,18.9z"/>
	<path class="st53" d="M121.9,29.4c-0.3,0-0.4-0.2-0.4-0.4C121.6,29,121.8,29.2,121.9,29.4z"/>
	<path class="st52" d="M121.2,66.7c0.2,0.1,0.3,0.2,0.2,0.5C121.1,67.1,121.1,66.9,121.2,66.7z"/>
	<path class="st54" d="M39.4,117.8c-0.2-0.1-0.4-0.2-0.4-0.4C39.2,117.4,39.3,117.5,39.4,117.8z"/>
	<path class="st55" d="M26.9,30.6c-0.1,0.2-0.2,0.4-0.5,0.4C26.5,30.8,26.6,30.6,26.9,30.6z"/>
	<path class="st55" d="M22.9,34.4c0,0.3-0.2,0.4-0.4,0.5C22.6,34.6,22.7,34.5,22.9,34.4z"/>
	<path class="st56" d="M110.5,145.1c0-0.3,0.2-0.3,0.4-0.3C110.9,145.1,110.7,145.1,110.5,145.1z"/>
	<path class="st57" d="M107.8,146.6c0.1-0.2,0.2-0.3,0.4-0.3C108.2,146.6,108,146.6,107.8,146.6z"/>
	<path class="st58" d="M56.2,38.3c0.2-0.2,0.3-0.3,0.6-0.3C56.6,38.2,56.5,38.4,56.2,38.3z"/>
	<path class="st50" d="M100.5,40.8c0.3,0,0.4,0.1,0.6,0.3C100.9,41.1,100.7,41,100.5,40.8z"/>
	<path class="st47" d="M97.2,127.6c-0.1,0.2-0.2,0.3-0.5,0.3C96.8,127.6,97,127.6,97.2,127.6z"/>
	<path class="st10" d="M56.9,36.5c-0.3,0-0.3-0.2-0.3-0.4C56.8,36.1,56.9,36.2,56.9,36.5z"/>
	<path class="st59" d="M105.5,17.8c-0.1,0.1-0.3,0.2-0.4,0.3C105.1,17.9,105.1,17.6,105.5,17.8z"/>
	<path class="st38" d="M50.3,126.3c-0.3,0-0.4-0.1-0.6-0.3C50,126,50.2,126.1,50.3,126.3z"/>
	<path class="st60" d="M12,105.3c-0.1-0.5-0.4-1-0.5-1.6c-0.1-0.2-0.1-0.4-0.2-0.6c-0.3-1.1-0.6-2.2-0.9-3.3
		c-0.2-0.4-0.2-0.9-0.4-1.3c-0.2-0.9-0.3-1.8-0.5-2.7c-0.1-0.3-0.1-0.6-0.2-0.9c-0.3-2.4-0.7-4.8-0.8-7.2c-0.2-3.7-0.2-7.4,0.2-11
		C8.7,75,9,73.3,9.3,71.7c0.2-0.3,0.1-0.6,0.2-0.9c0.1-0.8,0.3-1.5,0.5-2.3c0.2-0.5,0.2-1,0.4-1.5c0-0.2,0-0.4,0-0.5
		c0.2-0.4,0.1-0.8,0.4-1.2c0.2-0.6,0.3-1.2,0.5-1.8c0.1-0.2,0.1-0.4,0.3-0.6c0-0.1,0-0.2,0-0.3c0.2-0.3,0.2-0.7,0.4-1
		c0.3-0.9,0.6-1.7,0.9-2.6c0.1-0.2,0.1-0.5,0.3-0.7c1.5-3.4,3.1-6.8,5.1-10c3-4.7,6.4-9.1,10.5-12.9c0.8-0.8,1.6-1.5,2.5-2.2
		c0.2-0.1,0.3-0.3,0.5-0.4c1.1-1,2.2-1.9,3.4-2.7c0.1-0.1,0.3-0.2,0.5-0.4c0.1-0.1,0.3-0.2,0.4-0.3c0.2-0.1,0.4-0.3,0.6-0.4
		c0,0,0.1,0,0.1,0c0.2-0.2,0.4-0.2,0.6-0.4c1.2-1,2.6-1.8,4-2.6c0.8-0.5,1.7-0.9,2.5-1.4c0.3-0.2,0.4-0.2,0.6,0.1
		c1.1,1.9,2.3,3.8,3.4,5.7c0.9,1.5,1.8,3.1,2.8,4.6c0.3,0.5,0.2,0.8-0.3,0.9c-1.4,0.6-2.7,1.4-4,2.2c-2,1.3-4,2.7-5.8,4.2
		c-0.4,0.1-0.6,0.5-0.9,0.7c-0.4,0.4-0.8,0.8-1.3,1.2c-0.1,0.2-0.3,0.3-0.4,0.4c-0.8,0.8-1.5,1.5-2.3,2.3c-0.1,0.2-0.3,0.3-0.4,0.5
		c-1.9,2.1-3.6,4.3-5.2,6.7c-0.6,0.9-1.1,1.8-1.6,2.6c-0.1,0.1-0.2,0.3-0.3,0.4c-1.5,2.6-2.7,5.3-3.7,8.1c-0.2,0.6-0.4,1.2-0.6,1.8
		c-0.1,0.2-0.1,0.5-0.2,0.7c-0.3,1.2-0.8,2.3-0.9,3.6c-0.2,0.3-0.2,0.6-0.3,0.9c-0.2,1.1-0.4,2.2-0.6,3.3c-0.2,0.6,0,1.2-0.2,1.8
		c0,0.1,0,0.2,0,0.3c-0.2,0.4-0.1,0.9-0.2,1.3c-0.2,2.1-0.3,4.3-0.2,6.4c0.1,1.5,0.2,3,0.4,4.5c0,0.3,0,0.6,0,0.8
		c0.2,0.8,0.1,1.6,0.4,2.3c0.2,0.8,0.3,1.6,0.5,2.4c0.1,0.3,0.1,0.6,0.3,0.9c0,0.1,0,0.2,0,0.3c0.1,0.3,0.2,0.5,0.2,0.8
		c0,0.3,0.1,0.5,0.2,0.8l0,0c0.1,0.2,0.2,0.5,0.3,0.8c0.1,0.5,0.2,1.1,0.4,1.6c0.2,0.4,0.2,0.8,0.4,1.2c0.3,1.2,0.8,2.4,1.3,3.5
		c1.7,4,4,7.7,6.5,11.2c0.1,0.1,0.2,0.2,0.3,0.4c0.1,0.2,0.3,0.4,0.4,0.6c0.8,0.9,1.5,1.8,2.3,2.7c0.1,0.2,0.3,0.3,0.4,0.4
		c0.2,0.2,0.5,0.5,0.7,0.7c0.1,0.2,0.3,0.3,0.4,0.4c0.5,0.7,1.2,1.2,1.8,1.8c0.2,0.2,0.3,0.3,0.5,0.5c0.2,0.1,0.3,0.3,0.5,0.4
		c1,0.8,1.9,1.6,2.9,2.3c0.2,0.1,0.4,0.3,0.6,0.4c2.9,2.1,5.9,3.9,9.2,5.5c0.9,0.4,1.8,0.8,2.6,1.2c0.2,0.2,0.5,0.2,0.7,0.3
		c4.5,1.7,9.1,2.8,13.8,3.3c0.7,0.2,1.5,0,2.2,0.3c1.8,0,3.6,0,5.4,0c2.4,0,4.8-0.4,7.1-0.7c0.6-0.2,1.3-0.2,1.9-0.4
		c0.3,0,0.5,0,0.8-0.1c0.4-0.2,0.9-0.1,1.3-0.4l0,0c0.3-0.1,0.7-0.1,1-0.3c0.3-0.1,0.6-0.1,0.8-0.2c0.2-0.1,0.4-0.1,0.6-0.2
		c1.3-0.3,2.6-0.8,3.8-1.3c3.3-1.2,6.5-2.8,9.5-4.7c3.3-2.1,6.4-4.6,9.2-7.4c0.5-0.5,1-1,1.5-1.5c0.1-0.2,0.3-0.3,0.4-0.4
		c0.1-0.1,0.1-0.2,0.2-0.3c0.2-0.3,0.5-0.5,0.7-0.9c1.3-1.3,2.3-2.8,3.4-4.3c0.9-1.3,1.7-2.6,2.5-3.9c0.1-0.1,0.2-0.3,0.3-0.4
		c0.1-0.4,0.5-0.6,0.5-1c0.1-0.2,0.1-0.4,0.3-0.6c0.8-1.3,1.4-2.7,2-4.1c0.4-1.1,1-2.1,1.2-3.2c0.2-0.4,0.2-0.8,0.4-1.2
		c0.3-0.8,0.6-1.7,0.7-2.6c0.2-0.5,0.2-1,0.4-1.5c0-0.1,0-0.2,0.1-0.3c0.2-0.2,0.1-0.5,0.2-0.8c0-0.4,0.2-0.8,0.2-1.3
		c0.1-0.4,0.1-0.8,0.2-1.2c0.2-0.5,0.2-1,0.3-1.5c0-0.6,0-1.1,0.2-1.7c0-0.1,0-0.3,0-0.4c0.2-0.5,0-1,0.2-1.4
		c0.1-3.1,0.2-6.3-0.2-9.4c0-0.4,0-0.7,0-1.1c-0.2-0.8-0.1-1.7-0.4-2.5c-0.2-0.9-0.3-1.8-0.5-2.7c-0.1-0.3,0-0.6-0.3-0.9
		c0-0.1,0-0.3,0-0.4c-0.2-0.5-0.2-1-0.4-1.5c-0.4-1.3-0.8-2.7-1.2-4c-0.3-0.6-0.5-1.2-0.7-1.8c-0.4-1.4-1-2.7-1.6-4
		c-0.8-1.8-1.8-3.4-2.7-5.1c-0.1-0.1-0.2-0.3-0.3-0.4c-0.1-0.1-0.1-0.2-0.2-0.3c-0.3-0.3-0.4-0.6-0.7-0.9c-0.8-1.5-1.9-2.8-2.9-4.1
		c-1.2-1.5-2.5-3-3.9-4.3c-0.3-0.3-0.7-0.6-1-0.9c-0.2-0.1-0.3-0.3-0.4-0.4c-1.5-1.6-3.3-2.9-5-4.1c-1.6-1.2-3.3-2.2-5-3.2
		c-0.1,0-0.1,0-0.2-0.1c-0.2-0.1-0.1-0.3-0.1-0.4c0.8-1.5,1.6-3,2.5-4.5c1-1.9,2.1-3.8,3.1-5.7c0.3-0.5,0.5-0.8,1.2-0.4
		c2.2,1.4,4.4,2.9,6.5,4.5c1,0.8,2,1.6,3,2.4c0.2,0.1,0.3,0.3,0.4,0.5c0.4,0.3,0.6,0.6,1,0.9c0.5,0.5,1,1,1.6,1.5
		c0.1,0.2,0.3,0.3,0.4,0.4c0.8,0.8,1.5,1.6,2.3,2.4c0.2,0.3,0.5,0.5,0.7,0.9c0.5,0.6,1,1.1,1.4,1.7c0.1,0.3,0.4,0.5,0.6,0.7
		c1.7,2,3.2,4.1,4.6,6.3c0.1,0.1,0.1,0.3,0.2,0.4c0.2,0.3,0.4,0.6,0.7,0.9c1.2,1.9,2.2,3.8,3.2,5.7c0.1,0.2,0.2,0.3,0.2,0.5
		c0.6,1.3,1.2,2.7,1.8,4c0.4,1,0.9,2,1.2,3.1c0.1,0.2,0.1,0.4,0.3,0.6l0,0c0.2,0.4,0.2,0.8,0.4,1.2c0.3,1,0.6,2.1,0.9,3.1
		c0.1,0.3,0.1,0.6,0.3,0.9c0,0.1,0,0.2,0,0.3c0.1,0.2,0.2,0.5,0.2,0.7c0,0.3,0,0.6,0.2,0.9c0.5,2.3,1,4.7,1.2,7
		c0.3,1.4,0.2,2.9,0.4,4.3c0,1.8,0,3.6,0,5.5c-0.2,1.4-0.2,2.8-0.3,4.3c0,0.1-0.1,0.2-0.1,0.4c-0.2,2.4-0.7,4.7-1.2,7.1
		c-0.3,0.5-0.2,1.1-0.4,1.6c0,0.2,0,0.4,0,0.7c-0.2,0.4-0.2,0.9-0.4,1.3c-0.2,0.8-0.5,1.5-0.7,2.3c-0.2,0.4-0.2,0.8-0.4,1.2
		c-0.3,1.1-0.7,2.1-1.2,3.2c-0.2,0.2-0.1,0.5-0.3,0.7c-1.3,3.4-3,6.5-4.9,9.6c-1.6,2.5-3.3,4.9-5.2,7.2c-0.2,0.3-0.4,0.5-0.6,0.7
		c-0.4,0.4-0.8,0.9-1.1,1.3c-0.1,0.2-0.3,0.4-0.4,0.6c-0.4,0.4-0.9,0.9-1.3,1.3c-0.2,0.2-0.4,0.3-0.5,0.5c-0.1,0.2-0.2,0.4-0.4,0.4
		c-0.2,0.2-0.3,0.4-0.5,0.6c0,0.2-0.1,0.1-0.3,0.2c-0.2,0.2-0.5,0.5-0.7,0.7c-0.5,0.7-1.2,1.2-1.8,1.7c-2.8,2.4-5.8,4.7-9,6.6
		c-2.8,1.7-5.7,3.2-8.6,4.5c-1.9,0.8-3.9,1.6-5.9,2.2c-0.3,0.1-0.6,0.1-0.9,0.3c0,0-0.1,0-0.1,0c-0.4,0.2-0.8,0.2-1.2,0.4
		c-0.2,0.1-0.5,0.1-0.7,0.2c-0.3,0.1-0.6,0.1-0.9,0.3c-0.6,0.1-1.2,0.3-1.9,0.4c-0.2,0.1-0.4,0.1-0.6,0.1c-0.2,0-0.5,0-0.7,0.1
		c-0.1,0-0.2,0-0.3,0c-0.3,0.2-0.7,0.1-1.1,0.2c-0.4,0-0.8,0.1-1.2,0.2c0,0-0.1,0-0.1,0c-0.4,0.2-0.8,0.1-1.2,0.3
		c-2.1,0.1-4.1,0.4-6.2,0.5c-3.2,0.2-6.4,0-9.6-0.3c-2.3-0.2-4.6-0.6-6.9-1c-1-0.2-2-0.5-3.1-0.7c-0.4-0.3-0.8-0.2-1.2-0.4
		c-1.7-0.3-3.3-0.9-4.9-1.5c-0.7-0.2-1.4-0.6-2.2-0.8c-0.2-0.2-0.5-0.2-0.7-0.3c-3.6-1.4-7-3.3-10.3-5.3c-2.5-1.5-4.8-3.3-7-5.1
		c-0.7-0.6-1.4-1.1-2-1.8c-0.2-0.2-0.4-0.3-0.6-0.5c-2.2-2-4.3-4.2-6.2-6.5c-1.5-1.8-3-3.8-4.3-5.8c-1.6-2.5-3.1-5-4.3-7.6
		c-0.1-0.1-0.2-0.3-0.3-0.4c-0.2-0.3-0.2-0.6-0.4-0.9c-0.7-1.6-1.4-3.3-2-5c0-0.1,0-0.1-0.1-0.2C12.1,105.7,12.2,105.4,12,105.3z"/>
	<path class="st61" d="M21.3,89.9c-0.3,0-0.3-0.2-0.3-0.4c0-2.3-0.4-4.5-0.3-6.8c0.1-1.5,0.4-3,0.3-4.6c0-0.2,0.1-0.4,0.3-0.5
		c-0.2,2.4-0.4,4.9-0.3,7.3C21.1,86.6,21.2,88.2,21.3,89.9z"/>
	<path class="st62" d="M128.5,78.3c0.2,0.4,0.2,0.8,0.2,1.2c0.1,2.8,0.2,5.6,0,8.3c-0.2,0.3,0.2,0.7-0.2,0.9c0.2-2.5,0.2-5,0.1-7.5
		C128.6,80.3,128.4,79.3,128.5,78.3z"/>
	<path class="st47" d="M141.4,80.7c-0.3-0.3-0.1-0.7-0.2-1.1c-0.1-1.1-0.2-2.2-0.2-3.3C141.4,77.7,141.5,79.2,141.4,80.7z"/>
	<path class="st15" d="M141,90.4c0.2-1.4,0.1-2.9,0.4-4.3c0.2,1.3-0.2,2.6-0.2,3.9C141.1,90.1,141.4,90.4,141,90.4z"/>
	<path class="st63" d="M71.3,137.6c-0.8,0.1-1.5,0-2.2-0.3C69.9,137.4,70.7,137.2,71.3,137.6z"/>
	<path class="st64" d="M128.1,74.7c0.5,0.8,0.3,1.6,0.4,2.5C128.2,76.4,128.2,75.6,128.1,74.7z"/>
	<path class="st29" d="M21.8,93c-0.4-0.7-0.4-1.5-0.4-2.3C21.6,91.4,21.7,92.2,21.8,93z"/>
	<path class="st65" d="M128.1,92.7c-0.1,0.4-0.1,0.8-0.3,1.2c0.1-0.8,0-1.7,0.4-2.5C128.3,91.9,128.2,92.3,128.1,92.7z"/>
	<path class="st65" d="M128.5,89.6c0.1,0.6-0.1,1.1-0.1,1.7c0,0.1,0,0.1-0.1,0.1C128.2,90.7,128,90.1,128.5,89.6z"/>
	<path class="st66" d="M21.4,77.3c0-0.6,0.1-1.2,0.2-1.8C21.6,76.2,21.9,76.8,21.4,77.3z"/>
	<path class="st35" d="M125,63.5c0.3,0.6,0.6,1.1,0.7,1.8C125.2,64.7,125.1,64.1,125,63.5z"/>
	<path class="st67" d="M85.8,136.5c-0.6,0.3-1.2,0.4-1.9,0.4C84.4,136.4,85.1,136.7,85.8,136.5z"/>
	<path class="st68" d="M139.4,99.4c0.1-0.5-0.1-1.2,0.4-1.6C139.8,98.3,139.7,98.9,139.4,99.4z"/>
	<path class="st69" d="M10.4,67.1c-0.1,0.5,0.1,1.1-0.4,1.5C10,68,10.1,67.5,10.4,67.1z"/>
	<path class="st70" d="M128.2,91.3c0,0,0.1,0,0.1-0.1c0,0.5,0.2,1.1-0.2,1.5c-0.1-0.4,0.2-0.8,0.1-1.3
		C128.2,91.4,128.2,91.4,128.2,91.3z"/>
	<path class="st18" d="M126.9,69.3c0.4,0.4,0.4,1,0.4,1.5C127.1,70.3,127,69.8,126.9,69.3z"/>
	<path class="st66" d="M127.3,96.2c0,0.5-0.1,1-0.4,1.5C127,97.2,126.9,96.6,127.3,96.2z"/>
	<path class="st71" d="M84.3,149.3c0.4-0.2,0.8-0.3,1.2-0.3C85.1,149.5,84.7,149.3,84.3,149.3z"/>
	<path class="st18" d="M87.9,136.1c-0.4,0.4-0.9,0.3-1.3,0.4C86.9,136.2,87.4,136.2,87.9,136.1z"/>
	<path class="st11" d="M139,101.4c0-0.5,0.2-0.9,0.4-1.3C139.3,100.5,139.5,101,139,101.4z"/>
	<path class="st72" d="M10,98.5c0.3,0.4,0.3,0.9,0.4,1.3C10,99.4,10.1,98.9,10,98.5z"/>
	<path class="st24" d="M118.7,33c-0.5-0.1-0.7-0.5-1-0.9C118.2,32.2,118.4,32.6,118.7,33z"/>
	<path class="st7" d="M57.3,147.5c0.4,0.1,0.9-0.1,1.2,0.4C58.1,147.8,57.7,147.8,57.3,147.5z"/>
	<path class="st73" d="M85.6,149c0.4-0.4,0.9-0.3,1.3-0.2c0,0.1,0,0.1,0,0.1C86.4,148.9,86,149.1,85.6,149z"/>
	<path class="st74" d="M137.9,104.8c0-0.4,0-0.9,0.4-1.2C138.2,104.1,138.1,104.5,137.9,104.8z"/>
	<path class="st28" d="M92.9,147.4c0.3-0.4,0.8-0.3,1.2-0.4C93.8,147.4,93.3,147.4,92.9,147.4z"/>
	<path class="st19" d="M86.8,148.9c0,0,0-0.1,0-0.1c0.3,0,0.6-0.2,1-0.1C87.6,149,87.2,148.9,86.8,148.9z"/>
	<path class="st19" d="M138.3,63.4c-0.3-0.3-0.4-0.7-0.4-1.2C138.2,62.5,138.2,63,138.3,63.4z"/>
	<path class="st18" d="M10.8,65.3c-0.1,0.4,0,0.9-0.4,1.2C10.5,66.1,10.5,65.7,10.8,65.3z"/>
	<path class="st1" d="M128.5,88.7c0.2-0.2,0-0.6,0.2-0.9c0,0.4,0.2,0.9-0.2,1.3C128.5,89,128.5,88.9,128.5,88.7z"/>
	<path class="st65" d="M126.2,100.2c0,0.4-0.2,0.8-0.4,1.2C125.8,101,125.8,100.5,126.2,100.2z"/>
	<path class="st19" d="M24.1,101.7c-0.3-0.3-0.4-0.7-0.4-1.2C24.1,100.8,24,101.3,24.1,101.7z"/>
	<path class="st75" d="M131.2,48.2c-0.4-0.2-0.6-0.5-0.7-0.9C130.9,47.5,131,47.9,131.2,48.2z"/>
	<path class="st76" d="M119.6,52.8c0.4,0.2,0.5,0.6,0.7,0.9C119.8,53.5,119.7,53.2,119.6,52.8z"/>
	<path class="st23" d="M115.7,118.9c-0.1,0.4-0.4,0.6-0.7,0.9C115,119.4,115.4,119.2,115.7,118.9z"/>
	<path class="st77" d="M123.7,38.2c-0.3-0.2-0.6-0.5-0.7-0.9C123.3,37.5,123.7,37.7,123.7,38.2z"/>
	<path class="st28" d="M12,61.6c-0.1,0.4,0,0.8-0.4,1C11.6,62.3,11.7,61.9,12,61.6z"/>
	<path class="st78" d="M39.5,43.1c0.2-0.3,0.4-0.7,0.9-0.7C40.1,42.6,39.9,43,39.5,43.1z"/>
	<path class="st79" d="M22.5,96.3c-0.3-0.2-0.3-0.6-0.3-0.9C22.4,95.7,22.6,96,22.5,96.3z"/>
	<path class="st74" d="M120.4,131.8c0.2-0.3,0.4-0.6,0.7-0.7C121,131.4,120.8,131.7,120.4,131.8z"/>
	<path class="st80" d="M9.5,70.8c0.1,0.3,0.1,0.7-0.2,0.9C9.2,71.4,9.3,71.1,9.5,70.8z"/>
	<path class="st81" d="M91.3,147.9c0.2-0.4,0.6-0.2,0.9-0.3C91.9,147.8,91.6,147.9,91.3,147.9z"/>
	<path class="st82" d="M127.4,71.1c0.4,0.2,0.3,0.6,0.3,0.9C127.5,71.7,127.3,71.5,127.4,71.1z"/>
	<path class="st77" d="M88.9,135.8c-0.3,0.3-0.7,0.3-1,0.3C88.2,135.9,88.5,135.7,88.9,135.8z"/>
	<path class="st83" d="M9.3,94.9c0.4,0.2,0.3,0.6,0.2,0.9C9.3,95.5,9.2,95.2,9.3,94.9z"/>
	<path class="st27" d="M14.3,111c0.3,0.2,0.4,0.5,0.4,0.9C14.4,111.7,14.4,111.3,14.3,111z"/>
	<path class="st84" d="M23.4,67.8c-0.1-0.3,0-0.6,0.2-0.7C23.7,67.4,23.6,67.6,23.4,67.8z"/>
	<path class="st45" d="M94.2,147c0.3-0.2,0.5-0.3,0.9-0.3C94.8,147,94.5,147.1,94.2,147z"/>
	<path class="st77" d="M88.8,148.3c0.2,0,0.5,0,0.7,0c-0.3,0.2-0.5,0.3-0.9,0.3C88.6,148.4,88.7,148.4,88.8,148.3z"/>
	<path class="st21" d="M125.8,40.6c-0.3-0.2-0.5-0.4-0.6-0.7C125.4,40.1,125.7,40.2,125.8,40.6z"/>
	<path class="st81" d="M127.6,95.2c0,0.3,0.2,0.6-0.2,0.8C127.3,95.6,127.5,95.4,127.6,95.2z"/>
	<path class="st85" d="M22.2,72.3c0-0.3-0.1-0.7,0.3-0.9C22.6,71.7,22.4,72,22.2,72.3z"/>
	<path class="st86" d="M139.4,67.4c-0.4-0.2-0.3-0.6-0.3-0.9C139.3,66.8,139.4,67.1,139.4,67.4z"/>
	<path class="st87" d="M125.7,126.3c0.1-0.4,0.3-0.5,0.6-0.7C126.3,125.9,126,126.1,125.7,126.3z"/>
	<path class="st72" d="M22.7,97.5c0-0.3-0.2-0.5-0.1-0.8c0.4,0.2,0.3,0.6,0.3,0.9C22.7,97.5,22.7,97.5,22.7,97.5z"/>
	<path class="st76" d="M23.2,99c-0.2-0.2-0.3-0.4-0.3-0.8C23.2,98.4,23.3,98.6,23.2,99z"/>
	<path class="st45" d="M11.3,103.1c0.2,0.2,0.3,0.3,0.2,0.6C11.2,103.6,11.3,103.3,11.3,103.1z"/>
	<path class="st88" d="M55.3,134.1c-0.3,0.1-0.6,0-0.7-0.3C54.9,133.8,55.1,133.9,55.3,134.1z"/>
	<path class="st88" d="M136.4,108.7c0-0.3,0-0.6,0.3-0.7C136.7,108.3,136.6,108.5,136.4,108.7z"/>
	<path class="st89" d="M13.1,58.3c0,0.3-0.1,0.5-0.3,0.7C12.8,58.7,12.8,58.5,13.1,58.3z"/>
	<path class="st42" d="M12,105.3c0.3,0.1,0.3,0.3,0.3,0.6C12.1,105.7,11.9,105.5,12,105.3z"/>
	<path class="st26" d="M49.6,144.9c0.3,0,0.6,0,0.7,0.3C50,145.2,49.8,145.1,49.6,144.9z"/>
	<path class="st15" d="M139.6,68.4c0-0.2-0.2-0.5-0.1-0.7c0.3,0.2,0.3,0.5,0.2,0.8C139.6,68.5,139.6,68.5,139.6,68.4z"/>
	<path class="st24" d="M139.6,68.4c0,0,0.1,0,0.1,0c0.1,0.3,0.1,0.6,0.2,0.8C139.5,69.1,139.6,68.7,139.6,68.4z"/>
	<path class="st90" d="M88.8,148.3c-0.1,0.1-0.1,0.2-0.2,0.2c-0.1,0-0.3,0-0.4,0C88.2,148.2,88.5,148.3,88.8,148.3z"/>
	<path class="st17" d="M22.7,97.5c0,0,0.1,0,0.1,0c0,0.3,0.2,0.4,0.1,0.7C22.6,98,22.6,97.8,22.7,97.5z"/>
	<path class="st91" d="M11.5,62.9c0.1,0.3-0.1,0.4-0.3,0.6C11.2,63.3,11.2,63,11.5,62.9z"/>
	<path class="st92" d="M141,90.4c0.1-0.1,0.2-0.3,0.2-0.4c0,0.3,0.1,0.6-0.2,0.7C141,90.6,141,90.5,141,90.4z"/>
	<path class="st73" d="M37.2,28.5c-0.1,0.3-0.3,0.4-0.6,0.4C36.7,28.6,36.9,28.6,37.2,28.5z"/>
	<path class="st93" d="M42.8,127.1c-0.3,0-0.5-0.2-0.6-0.4C42.5,126.7,42.7,126.9,42.8,127.1z"/>
	<path class="st94" d="M36.5,28.9c-0.1,0.2-0.3,0.4-0.6,0.4C36,29.1,36.2,29,36.5,28.9z"/>
	<path class="st41" d="M121.4,130.9c0-0.3,0.2-0.5,0.5-0.6C121.9,130.6,121.6,130.7,121.4,130.9z"/>
	<path class="st72" d="M124.2,128.2c0-0.3,0.3-0.4,0.4-0.6C124.6,127.9,124.4,128,124.2,128.2z"/>
	<path class="st41" d="M29.7,132.2c0.3,0,0.4,0.2,0.6,0.5C30,132.6,29.9,132.4,29.7,132.2z"/>
	<path class="st41" d="M122.3,129.9c0.1-0.3,0.2-0.5,0.5-0.5C122.7,129.7,122.6,129.9,122.3,129.9z"/>
	<path class="st95" d="M90.3,135.4c-0.1,0.3-0.4,0.3-0.6,0.2C89.9,135.5,90.1,135.3,90.3,135.4z"/>
	<path class="st96" d="M32.7,117.4c-0.3-0.1-0.4-0.3-0.4-0.6C32.5,116.9,32.7,117.1,32.7,117.4z"/>
	<path class="st97" d="M137.8,62.2c-0.2-0.1-0.4-0.3-0.3-0.6C137.7,61.8,137.9,61.9,137.8,62.2z"/>
	<path class="st29" d="M35.5,29.7c0,0.3-0.2,0.3-0.5,0.4C35,29.8,35.3,29.8,35.5,29.7z"/>
	<path class="st11" d="M67.6,132.5c0.3-0.1,0.5,0,0.8,0.1C68.1,132.6,67.8,132.7,67.6,132.5z"/>
	<path class="st21" d="M31.6,32.8c-0.1,0.2-0.2,0.4-0.5,0.4C31.1,33,31.3,32.9,31.6,32.8z"/>
	<path class="st98" d="M35.4,120.5c-0.3,0-0.4-0.2-0.4-0.4C35.3,120.2,35.4,120.3,35.4,120.5z"/>
	<path class="st43" d="M114.8,120.1c-0.1,0.2-0.2,0.4-0.4,0.4C114.4,120.3,114.5,120.1,114.8,120.1z"/>
	<path class="st54" d="M36.6,121.7c-0.2,0-0.4-0.2-0.4-0.4C36.4,121.3,36.5,121.5,36.6,121.7z"/>
	<path class="st43" d="M39.4,124.4c-0.2-0.1-0.4-0.2-0.5-0.4C39.2,124,39.3,124.1,39.4,124.4z"/>
	<path class="st54" d="M120.7,34.9c-0.3,0-0.4-0.2-0.4-0.4C120.5,34.5,120.6,34.6,120.7,34.9z"/>
	<path class="st99" d="M111.4,43c0.3,0,0.4,0.2,0.4,0.4C111.6,43.4,111.4,43.2,111.4,43z"/>
	<path class="st55" d="M37.8,44.7c0.1-0.2,0.2-0.4,0.4-0.4C38.2,44.5,38,44.6,37.8,44.7z"/>
	<path class="st55" d="M35.1,47.4c0-0.2,0.2-0.4,0.4-0.5C35.5,47.2,35.3,47.3,35.1,47.4z"/>
	<path class="st100" d="M120.4,54c0.2,0.1,0.3,0.2,0.3,0.4C120.4,54.4,120.4,54.2,120.4,54z"/>
	<path class="st101" d="M134.6,54.5c-0.3-0.1-0.3-0.3-0.2-0.5C134.6,54.1,134.7,54.2,134.6,54.5z"/>
	<path class="st100" d="M28,57.2c0-0.2,0.1-0.4,0.3-0.4C28.3,56.9,28.2,57.1,28,57.2z"/>
	<path class="st50" d="M101.1,35.3c0,0.1,0,0.3,0.1,0.4c-0.1,0-0.3-0.1-0.3-0.2C100.9,35.3,101,35.3,101.1,35.3z"/>
	<path class="st13" d="M122.6,108.7c0,0.3-0.1,0.4-0.3,0.6C122.3,109.1,122.4,108.9,122.6,108.7z"/>
	<path class="st56" d="M121.8,110.3c0,0.2,0,0.4-0.3,0.4C121.6,110.5,121.6,110.3,121.8,110.3z"/>
	<path class="st60" d="M71,52.2c0-9.1,0-18.1,0-27.2c0-0.7,0.2-0.8,0.8-0.8c3,0,5.9,0,8.9,0c0.6,0,0.9,0.1,0.9,0.8
		c0,18.2,0,36.4,0,54.6c0,0.6-0.2,0.7-0.7,0.7c-3,0-6.1,0-9.1,0c-0.6,0-0.7-0.2-0.7-0.7C71,70.4,71,61.3,71,52.2z"/>
</g>
</svg>
