<?xml version="1.0" encoding="utf-8"?>
<!-- Generator: Adobe Illustrator 18.1.1, SVG Export Plug-In . SVG Version: 6.00 Build 0)  -->
<!DOCTYPE svg PUBLIC "-//W3C//DTD SVG 1.1//EN" "http://www.w3.org/Graphics/SVG/1.1/DTD/svg11.dtd">
<svg version="1.1" id="Layer_1" xmlns="http://www.w3.org/2000/svg" xmlns:xlink="http://www.w3.org/1999/xlink" x="0px" y="0px"
	 viewBox="206 329.1 919.5 153.3" enable-background="new 206 329.1 919.5 153.3" xml:space="preserve">
<g id="Layer_2" display="none">
	<rect x="176" y="140.9" display="inline" fill="#1D1D1B" width="966" height="572"/>
</g>
<g id="phase_1">
	<line fill="none" stroke="#FFFFFF" stroke-width="16" stroke-miterlimit="10" x1="216" y1="473.9" x2="216" y2="396.9"/>
	<line fill="none" stroke="#FFFFFF" stroke-width="16" stroke-miterlimit="10" x1="216" y1="404.9" x2="304" y2="404.9"/>
	<line fill="none" stroke="#FFFFFF" stroke-width="16" stroke-miterlimit="10" x1="296" y1="403.9" x2="296" y2="335.9"/>
	<line fill="none" stroke="#FFFFFF" stroke-width="16" stroke-miterlimit="10" x1="293" y1="343.9" x2="206" y2="343.9"/>
	<g>
		<rect x="334" y="395.9" fill="none" width="0" height="0.1"/>
		<line fill="none" x1="334" y1="395.9" x2="334" y2="395.9"/>
		<line fill="none" x1="334" y1="395.9" x2="334" y2="395.9"/>
		<line fill="none" x1="334" y1="396" x2="334" y2="396"/>
		<line fill="none" x1="334" y1="396" x2="334" y2="396"/>
		<line fill="none" x1="334" y1="396" x2="334" y2="396"/>
		<line fill="none" x1="334" y1="395.9" x2="334" y2="395.9"/>
		<line fill="none" x1="334" y1="395.9" x2="334" y2="395.9"/>
		<line fill="none" x1="334" y1="395.9" x2="334" y2="395.9"/>
		<line fill="none" x1="334" y1="395.9" x2="334" y2="395.9"/>
		<line fill="none" x1="334" y1="395.9" x2="334" y2="395.9"/>
	</g>
	<g>
		<rect x="334" y="395.9" fill="#FFFFFF" width="81" height="16"/>
		<line fill="none" x1="334" y1="406.9" x2="415" y2="406.9"/>
		<line fill="none" x1="334" y1="404.9" x2="415" y2="404.9"/>
		<line fill="none" x1="334" y1="400.9" x2="415" y2="400.9"/>
		<line fill="none" x1="334" y1="398.9" x2="415" y2="398.9"/>
		<line fill="none" x1="401" y1="395.9" x2="401" y2="411.9"/>
		<line fill="none" x1="388" y1="395.9" x2="388" y2="411.9"/>
		<line fill="none" x1="374" y1="395.9" x2="374" y2="411.9"/>
		<line fill="none" x1="361" y1="395.9" x2="361" y2="411.9"/>
		<line fill="none" x1="347" y1="395.9" x2="347" y2="411.9"/>
		<line fill="none" x1="334" y1="409.9" x2="415" y2="409.9"/>
	</g>
	<g>
		<rect x="415" y="335.9" fill="#FFFFFF" width="16" height="138"/>
		<line fill="none" x1="415" y1="450.9" x2="431" y2="450.9"/>
		<line fill="none" x1="415" y1="427.9" x2="431" y2="427.9"/>
		<line fill="none" x1="415" y1="404.9" x2="431" y2="404.9"/>
		<line fill="none" x1="415" y1="381.9" x2="431" y2="381.9"/>
		<line fill="none" x1="415" y1="358.9" x2="431" y2="358.9"/>
		<line fill="none" x1="428" y1="335.9" x2="428" y2="473.9"/>
		<line fill="none" x1="426" y1="335.9" x2="426" y2="473.9"/>
		<line fill="none" x1="423" y1="335.9" x2="423" y2="473.9"/>
		<line fill="none" x1="420" y1="335.9" x2="420" y2="473.9"/>
		<line fill="none" x1="418" y1="335.9" x2="418" y2="473.9"/>
	</g>
	<g>
		<polyline fill="#FFFFFF" points="334,473.9 318,473.9 318,335.9 334,335.9 		"/>
		<line fill="none" x1="318" y1="450.9" x2="334" y2="450.9"/>
		<line fill="none" x1="318" y1="427.9" x2="334" y2="427.9"/>
		<line fill="none" x1="318" y1="404.9" x2="334" y2="404.9"/>
		<line fill="none" x1="318" y1="381.9" x2="334" y2="381.9"/>
		<line fill="none" x1="318" y1="358.9" x2="334" y2="358.9"/>
		<line fill="none" x1="331" y1="335.9" x2="331" y2="473.9"/>
		<line fill="none" x1="329" y1="335.9" x2="329" y2="473.9"/>
		<line fill="none" x1="326" y1="335.9" x2="326" y2="473.9"/>
		<line fill="none" x1="323" y1="335.9" x2="323" y2="473.9"/>
		<line fill="none" x1="321" y1="335.9" x2="321" y2="473.9"/>
	</g>
	<path fill="#FFFFFF" d="M441.2,474.1c0.2,0.3,54.2-138.2,54.2-138.2H519l54.3,138H550l-39.8-109H502l-38.2,109l-23.2,0.2"/>
	<g>
		<rect x="580" y="335.9" fill="#FFFFFF" width="99" height="16"/>
		<line fill="none" x1="679" y1="348.9" x2="580" y2="348.9"/>
		<line fill="none" x1="679" y1="346.9" x2="580" y2="346.9"/>
		<line fill="none" x1="679" y1="343.9" x2="580" y2="343.9"/>
		<line fill="none" x1="679" y1="340.9" x2="580" y2="340.9"/>
		<line fill="none" x1="679" y1="338.9" x2="580" y2="338.9"/>
		<line fill="none" x1="596" y1="335.9" x2="596" y2="351.9"/>
		<line fill="none" x1="613" y1="335.9" x2="613" y2="351.9"/>
		<line fill="none" x1="630" y1="335.9" x2="630" y2="351.9"/>
		<line fill="none" x1="646" y1="335.9" x2="646" y2="351.9"/>
		<line fill="none" x1="663" y1="335.9" x2="663" y2="351.9"/>
	</g>
	<g>
		<rect x="580" y="352.9" fill="none" width="16" height="29"/>
		<line fill="none" x1="596" y1="357.9" x2="580" y2="357.9"/>
		<line fill="none" x1="596" y1="362.9" x2="580" y2="362.9"/>
		<line fill="none" x1="596" y1="366.9" x2="580" y2="366.9"/>
		<line fill="none" x1="596" y1="371.9" x2="580" y2="371.9"/>
		<line fill="none" x1="596" y1="376.9" x2="580" y2="376.9"/>
		<line fill="none" x1="583" y1="381.9" x2="583" y2="352.9"/>
		<line fill="none" x1="585" y1="381.9" x2="585" y2="352.9"/>
		<line fill="none" x1="588" y1="381.9" x2="588" y2="352.9"/>
		<line fill="none" x1="591" y1="381.9" x2="591" y2="352.9"/>
		<line fill="none" x1="593" y1="381.9" x2="593" y2="352.9"/>
	</g>
	<g>
		<rect x="581" y="382.9" fill="none" width="13" height="13"/>
		<line fill="none" x1="581" y1="393.9" x2="594" y2="393.9"/>
		<line fill="none" x1="581" y1="391.9" x2="594" y2="391.9"/>
		<line fill="none" x1="581" y1="389.9" x2="594" y2="389.9"/>
		<line fill="none" x1="581" y1="386.9" x2="594" y2="386.9"/>
		<line fill="none" x1="581" y1="384.9" x2="594" y2="384.9"/>
		<line fill="none" x1="592" y1="382.9" x2="592" y2="395.9"/>
		<line fill="none" x1="590" y1="382.9" x2="590" y2="395.9"/>
		<line fill="none" x1="588" y1="382.9" x2="588" y2="395.9"/>
		<line fill="none" x1="585" y1="382.9" x2="585" y2="395.9"/>
		<line fill="none" x1="583" y1="382.9" x2="583" y2="395.9"/>
	</g>
	<g>
		<rect x="580" y="350.9" fill="#FFFFFF" width="16" height="61"/>
		<line fill="none" x1="596" y1="360.9" x2="580" y2="360.9"/>
		<line fill="none" x1="596" y1="370.9" x2="580" y2="370.9"/>
		<line fill="none" x1="596" y1="381.9" x2="580" y2="381.9"/>
		<line fill="none" x1="596" y1="391.9" x2="580" y2="391.9"/>
		<line fill="none" x1="596" y1="401.9" x2="580" y2="401.9"/>
		<line fill="none" x1="583" y1="411.9" x2="583" y2="350.9"/>
		<line fill="none" x1="585" y1="411.9" x2="585" y2="350.9"/>
		<line fill="none" x1="588" y1="411.9" x2="588" y2="350.9"/>
		<line fill="none" x1="591" y1="411.9" x2="591" y2="350.9"/>
		<line fill="none" x1="593" y1="411.9" x2="593" y2="350.9"/>
	</g>
	<g>
		<rect x="595" y="395.9" fill="#FFFFFF" width="83" height="16"/>
		<line fill="none" x1="678" y1="408.9" x2="595" y2="408.9"/>
		<line fill="none" x1="678" y1="406.9" x2="595" y2="406.9"/>
		<line fill="none" x1="678" y1="403.9" x2="595" y2="403.9"/>
		<line fill="none" x1="678" y1="400.9" x2="595" y2="400.9"/>
		<line fill="none" x1="678" y1="398.9" x2="595" y2="398.9"/>
		<line fill="none" x1="609" y1="395.9" x2="609" y2="411.9"/>
		<line fill="none" x1="623" y1="395.9" x2="623" y2="411.9"/>
		<line fill="none" x1="636" y1="395.9" x2="636" y2="411.9"/>
		<line fill="none" x1="650" y1="395.9" x2="650" y2="411.9"/>
		<line fill="none" x1="664" y1="395.9" x2="664" y2="411.9"/>
	</g>
	<g>
		<rect x="663" y="411.9" fill="#FFFFFF" width="15" height="62"/>
		<line fill="none" x1="663" y1="463.9" x2="678" y2="463.9"/>
		<line fill="none" x1="663" y1="452.9" x2="678" y2="452.9"/>
		<line fill="none" x1="663" y1="442.9" x2="678" y2="442.9"/>
		<line fill="none" x1="663" y1="432.9" x2="678" y2="432.9"/>
		<line fill="none" x1="663" y1="421.9" x2="678" y2="421.9"/>
		<line fill="none" x1="675" y1="411.9" x2="675" y2="473.9"/>
		<line fill="none" x1="673" y1="411.9" x2="673" y2="473.9"/>
		<line fill="none" x1="670" y1="411.9" x2="670" y2="473.9"/>
		<line fill="none" x1="668" y1="411.9" x2="668" y2="473.9"/>
		<line fill="none" x1="665" y1="411.9" x2="665" y2="473.9"/>
	</g>
	<g>
		<rect x="580" y="456.9" fill="#FFFFFF" width="84" height="17"/>
		<line fill="none" x1="664" y1="459.9" x2="580" y2="459.9"/>
		<line fill="none" x1="664" y1="462.9" x2="580" y2="462.9"/>
		<line fill="none" x1="664" y1="465.9" x2="580" y2="465.9"/>
		<line fill="none" x1="664" y1="467.9" x2="580" y2="467.9"/>
		<line fill="none" x1="664" y1="470.9" x2="580" y2="470.9"/>
		<line fill="none" x1="594" y1="473.9" x2="594" y2="456.9"/>
		<line fill="none" x1="608" y1="473.9" x2="608" y2="456.9"/>
		<line fill="none" x1="622" y1="473.9" x2="622" y2="456.9"/>
		<line fill="none" x1="636" y1="473.9" x2="636" y2="456.9"/>
		<line fill="none" x1="650" y1="473.9" x2="650" y2="456.9"/>
	</g>
	<path fill="#FFFFFF" d="M698,334.9v16h64l23.6-14c-0.7-0.7-1.5-1.4-2.3-2H698z"/>
	<g>
		<rect x="698" y="394.9" fill="#FFFFFF" width="47" height="16"/>
		<line fill="none" x1="698" y1="407.9" x2="745" y2="407.9"/>
		<line fill="none" x1="698" y1="405.9" x2="745" y2="405.9"/>
		<line fill="none" x1="698" y1="402.9" x2="745" y2="402.9"/>
		<line fill="none" x1="698" y1="399.9" x2="745" y2="399.9"/>
		<line fill="none" x1="698" y1="397.9" x2="745" y2="397.9"/>
		<line fill="none" x1="737" y1="394.9" x2="737" y2="410.9"/>
		<line fill="none" x1="729" y1="394.9" x2="729" y2="410.9"/>
		<line fill="none" x1="722" y1="394.9" x2="722" y2="410.9"/>
		<line fill="none" x1="714" y1="394.9" x2="714" y2="410.9"/>
		<line fill="none" x1="706" y1="394.9" x2="706" y2="410.9"/>
	</g>
	<g>
		<polygon fill="#FFFFFF" points="698,454.9 767.5,454.9 793,472.9 698,472.9 		"/>
		<line fill="none" x1="698" y1="469.9" x2="793" y2="469.9"/>
		<line fill="none" x1="698" y1="466.9" x2="793" y2="466.9"/>
		<line fill="none" x1="698" y1="463.9" x2="793" y2="463.9"/>
		<line fill="none" x1="698" y1="460.9" x2="793" y2="460.9"/>
		<line fill="none" x1="698" y1="457.9" x2="793" y2="457.9"/>
		<line fill="none" x1="778" y1="454.9" x2="778" y2="472.9"/>
		<line fill="none" x1="762" y1="454.9" x2="762" y2="472.9"/>
		<line fill="none" x1="746" y1="454.9" x2="746" y2="472.9"/>
		<line fill="none" x1="730" y1="454.9" x2="730" y2="472.9"/>
		<line fill="none" x1="714" y1="454.9" x2="714" y2="472.9"/>
	</g>
	<path fill="none" stroke="#FFFFFF" stroke-width="6" stroke-miterlimit="10" d="M839.1,351.6"/>
	<path fill="none" stroke="#FFFFFF" stroke-width="6" stroke-miterlimit="10" d="M818.1,347.4"/>
	<path fill="none" stroke="#FFFFFF" stroke-width="5" stroke-miterlimit="10" d="M788.9,334.7"/>
	<path fill="none" stroke="#FFFFFF" stroke-width="6" stroke-miterlimit="10" d="M850.2,336"/>
	<path fill="none" stroke="#FFFFFF" stroke-width="6" stroke-miterlimit="10" d="M790.3,334.1"/>
	<path fill="none" stroke="#FFFFFF" stroke-width="5" stroke-miterlimit="10" d="M784.4,336.8"/>
	<path fill="none" stroke="#FFFFFF" stroke-width="5" stroke-miterlimit="10" d="M849.2,337"/>
	<path fill="none" stroke="#FFFFFF" stroke-width="5" stroke-miterlimit="10" d="M842.6,353.6c17.5,9,28.7,27.9,28.7,49
		c0,30-24.3,54.2-54.2,54.2c-30,0-54.2-24.3-54.2-54.2c0-22.2,13.3-41.3,32.4-49.7l-9.7-16.2c-24.3,11.7-41,36.6-41,65.4
		c0,40.1,32.5,72.6,72.6,72.6c40.1,0,72.6-32.5,72.6-72.6c0-27.3-16.8-53-39.2-65.4"/>
	<path fill="none" stroke="#FFFFFF" stroke-width="5" stroke-miterlimit="10" d="M841.8,354.4"/>
	<path fill="none" stroke="#FFFFFF" stroke-width="5" stroke-miterlimit="10" d="M841,353.9"/>
	<path fill="none" stroke="#FFFFFF" stroke-width="5" stroke-miterlimit="10" d="M841,353.9"/>
	<path fill="none" stroke="#FFFFFF" stroke-width="5" stroke-miterlimit="10" d="M838.1,352.6"/>
	<path fill="none" stroke="#FFFFFF" stroke-width="5" stroke-miterlimit="10" d="M850.3,334.7"/>
	<path fill="none" stroke="#FFFFFF" stroke-width="5" stroke-miterlimit="10" d="M852.5,335.8"/>
	<line fill="none" stroke="#FFFFFF" stroke-width="5" stroke-miterlimit="10" x1="851.3" y1="334.3" x2="839.9" y2="355"/>
	<g>
		<rect x="810.5" y="337.4" fill="none" stroke="#FFFFFF" stroke-width="5" stroke-miterlimit="10" width="16" height="64"/>
		<path fill="#FFFFFF" d="M811,334.3"/>
		<path fill="#FFFFFF" d="M827,334.3"/>
		<path fill="#FFFFFF" d="M811,347"/>
		<path fill="#FFFFFF" d="M827,347"/>
		<path fill="#FFFFFF" d="M811,360.7"/>
		<path fill="#FFFFFF" d="M827,360.7"/>
		<path fill="#FFFFFF" d="M811,373.5"/>
		<path fill="#FFFFFF" d="M827,373.5"/>
		<path fill="#FFFFFF" d="M811,387.2"/>
		<path fill="#FFFFFF" d="M827,387.2"/>
		<path fill="#FFFFFF" d="M814,399.9"/>
		<path fill="#FFFFFF" d="M816,399.9"/>
		<path fill="#FFFFFF" d="M819,399.9"/>
		<path fill="#FFFFFF" d="M822,399.9"/>
	</g>
	<g>
		<path fill="none" stroke="#FFFFFF" stroke-width="5" stroke-miterlimit="10" d="M838,352.4"/>
		<path fill="none" stroke="#FFFFFF" stroke-width="5" stroke-miterlimit="10" d="M791,352.4"/>
		<path fill="none" stroke="#FFFFFF" stroke-width="5" stroke-miterlimit="10" d="M838,352.4"/>
		<path fill="none" stroke="#FFFFFF" stroke-width="5" stroke-miterlimit="10" d="M791,352.4"/>
		<path fill="none" stroke="#FFFFFF" stroke-width="5" stroke-miterlimit="10" d="M842,352.4"/>
		<path fill="none" stroke="#FFFFFF" stroke-width="5" stroke-miterlimit="10" d="M795,352.4"/>
		<path fill="none" stroke="#FFFFFF" stroke-width="5" stroke-miterlimit="10" d="M842,352.4"/>
		<path fill="none" stroke="#FFFFFF" stroke-width="5" stroke-miterlimit="10" d="M795,352.4"/>
		<line fill="none" stroke="#FFFFFF" stroke-width="5" stroke-miterlimit="10" x1="826.3" y1="352.6" x2="826.3" y2="352.6"/>
		<line fill="none" stroke="#FFFFFF" stroke-width="5" stroke-miterlimit="10" x1="818.6" y1="352.6" x2="818.6" y2="352.6"/>
		<line fill="none" stroke="#FFFFFF" stroke-width="5" stroke-miterlimit="10" x1="810.9" y1="352.6" x2="810.9" y2="352.6"/>
	</g>
	<rect x="905.5" y="336.4" fill="none" stroke="#FFFFFF" stroke-width="5" stroke-miterlimit="10" width="16" height="134"/>
	<rect x="996.5" y="336.4" fill="none" stroke="#FFFFFF" stroke-width="5" stroke-miterlimit="10" width="16" height="134"/>
	<polygon fill="none" stroke="#FFFFFF" stroke-width="5" stroke-miterlimit="10" points="937.4,337.4 986.5,450.4 986.5,470.4 
		980,470.4 930.5,358.7 930.5,337.4 	"/>
	<g>
		<rect x="1031.5" y="336.4" fill="none" stroke="#FFFFFF" stroke-width="5" stroke-miterlimit="10" width="88" height="16"/>
		<line fill="none" x1="1031" y1="350.9" x2="1120" y2="350.9"/>
		<line fill="none" x1="1031" y1="347.9" x2="1120" y2="347.9"/>
		<line fill="none" x1="1031" y1="344.9" x2="1120" y2="344.9"/>
		<line fill="none" x1="1031" y1="341.9" x2="1120" y2="341.9"/>
		<line fill="none" x1="1031" y1="339.9" x2="1120" y2="339.9"/>
		<line fill="none" x1="1104" y1="336.9" x2="1104" y2="352.9"/>
		<line fill="none" x1="1090" y1="336.9" x2="1090" y2="352.9"/>
		<line fill="none" x1="1075" y1="336.9" x2="1075" y2="352.9"/>
		<line fill="none" x1="1060" y1="336.9" x2="1060" y2="352.9"/>
		<line fill="none" x1="1045" y1="336.9" x2="1045" y2="352.9"/>
	</g>
	<rect x="1031.5" y="395.4" fill="none" stroke="#FFFFFF" stroke-width="5" stroke-miterlimit="10" width="88" height="16"/>
	<rect x="1030.5" y="454.4" fill="none" stroke="#FFFFFF" stroke-width="5" stroke-miterlimit="10" width="88" height="16"/>
</g>
</svg>
