<?xml version="1.0" encoding="UTF-8" standalone="no"?>
<svg width="266px" height="41px" viewBox="0 0 266 41" version="1.1" xmlns="http://www.w3.org/2000/svg" xmlns:xlink="http://www.w3.org/1999/xlink">
    <!-- Generator: Sketch 41.1 (35376) - http://www.bohemiancoding.com/sketch -->
    <title>Combined Shape</title>
    <desc>Created with Sketch.</desc>
    <defs></defs>
    <g id="Desktop" stroke="none" stroke-width="1" fill="none" fill-rule="evenodd" fill-opacity="1">
        <g id="Welcome-Page" transform="translate(-996.000000, -107.000000)" fill="#FFFFFF">
            <g id="Background" transform="translate(0.000000, -152.000000)">
                <path d="M1033.32435,289.000006 C1029.86626,294.978016 1023.40282,299 1016,299 C1004.95431,299 996,290.045695 996,279 C996,267.954305 1004.95431,259 1016,259 C1024.20128,259 1031.2496,263.936381 1034.33583,270.999999 L1224.13458,271 C1227.42821,264.474842 1234.19153,260 1242,260 C1253.04569,260 1262,268.954305 1262,280 C1262,291.045695 1253.04569,300 1242,300 C1234.19153,300 1227.42821,295.525158 1224.13458,289.000002 L1033.32436,289 Z" id="Combined-Shape"></path>
            </g>
        </g>
    </g>
</svg>